<?xml version="1.0" standalone="no"?>
<!DOCTYPE svg PUBLIC "-//W3C//DTD SVG 20010904//EN"
 "http://www.w3.org/TR/2001/REC-SVG-20010904/DTD/svg10.dtd">
<svg version="1.0" xmlns="http://www.w3.org/2000/svg"
 width="700.000000pt" height="700.000000pt" viewBox="0 0 700.000000 700.000000"
 preserveAspectRatio="xMidYMid meet">
<metadata>
Created by potrace 1.11, written by Peter Selinger 2001-2013
</metadata>
<g transform="translate(0.000000,700.000000) scale(0.100000,-0.100000)"
fill="#000000" stroke="none">
<path d="M2798 6985 c-106 -29 -181 -95 -228 -200 -37 -82 -40 -112 -40 -378
0 -244 1 -258 25 -328 55 -156 184 -243 360 -243 189 0 311 86 367 259 20 64
22 90 23 300 1 134 -3 256 -10 291 -26 142 -112 249 -235 293 -49 18 -205 22
-262 6z"/>
<path d="M849 6196 c-161 -66 -274 -231 -262 -384 10 -131 63 -211 284 -428
163 -160 222 -201 324 -222 161 -34 333 61 423 232 24 45 27 62 27 146 0 88
-3 101 -34 165 -29 60 -60 96 -220 256 -158 158 -196 191 -254 219 -92 45
-203 51 -288 16z"/>
<path d="M4755 6205 c-104 -39 -162 -84 -346 -272 -124 -127 -152 -161 -185
-228 -36 -74 -39 -85 -39 -164 1 -75 5 -94 30 -145 17 -34 56 -86 89 -118 146
-144 311 -162 481 -53 56 36 351 329 391 389 76 111 92 250 43 356 -36 77
-124 169 -201 210 -54 29 -75 34 -143 37 -53 2 -94 -2 -120 -12z"/>
<path d="M2740 5629 c-30 -4 -72 -10 -92 -13 -46 -6 -239 -56 -253 -66 -5 -3
-32 -15 -60 -25 -276 -99 -575 -352 -745 -629 -90 -149 -174 -359 -196 -496
-3 -14 -7 -38 -11 -55 -12 -58 -13 -71 -17 -250 -2 -117 -9 -208 -20 -259 -27
-130 -14 -319 29 -423 9 -20 13 -38 11 -41 -3 -2 -27 1 -53 7 -258 58 -530 2
-748 -154 -251 -178 -389 -447 -389 -755 1 -431 323 -811 759 -896 84 -16 241
-17 2375 -17 2200 0 2337 1 2455 27 152 33 248 66 380 131 229 113 423 277
571 484 114 160 214 400 239 576 3 22 8 47 11 55 10 27 13 304 4 375 -41 317
-176 603 -398 836 -55 58 -123 117 -227 197 -25 20 -165 100 -210 121 -99 46
-111 51 -185 75 -264 87 -621 98 -875 27 -57 -16 -62 -14 -70 16 -10 41 -71
159 -123 238 -63 96 -229 259 -332 327 -159 104 -330 170 -501 193 -24 3 -53
8 -64 10 -11 2 -29 4 -40 4 -11 1 -36 15 -55 31 -176 152 -451 282 -703 331
-112 22 -372 32 -467 18z"/>
<path d="M390 4472 c-183 -19 -299 -89 -355 -214 -23 -51 -29 -79 -31 -153 -5
-178 56 -292 191 -360 88 -44 150 -51 410 -50 220 2 245 4 304 24 165 57 249
170 255 341 8 211 -92 347 -294 400 -39 10 -409 20 -480 12z"/>
<path d="M900 1330 c-25 -16 -56 -35 -70 -43 -174 -95 -503 -303 -533 -336
-91 -100 -123 -237 -87 -361 36 -120 97 -193 208 -247 72 -36 81 -38 171 -38
87 0 102 3 162 31 112 53 196 160 217 275 5 25 8 79 6 120 -9 288 -17 532 -18
576 0 29 -3 53 -6 52 -3 0 -25 -13 -50 -29z"/>
<path d="M5770 1220 c-129 -77 -240 -144 -247 -150 -7 -5 -15 -10 -18 -10 -15
0 -114 -70 -149 -106 -86 -86 -125 -236 -93 -357 45 -170 193 -289 369 -296
152 -6 300 85 366 227 26 55 27 62 26 242 0 178 -12 582 -17 587 -2 1 -108
-61 -237 -137z"/>
<path d="M3364 1071 c-166 -100 -317 -196 -337 -217 -54 -56 -96 -143 -105
-217 -38 -314 287 -539 572 -397 66 34 149 126 177 197 26 68 28 154 15 533
-5 129 -8 245 -7 258 0 12 -3 22 -7 22 -4 0 -142 -81 -308 -179z"/>
<path d="M2081 924 c-123 -74 -225 -134 -226 -134 -13 0 -161 -98 -185 -123
-249 -250 -65 -677 285 -663 82 4 103 8 162 36 87 41 162 128 198 230 20 55
20 169 1 639 -4 80 -7 146 -9 147 -1 2 -103 -58 -226 -132z"/>
<path d="M4789 1031 c-25 -15 -49 -30 -55 -32 -6 -2 -126 -74 -268 -159 -223
-133 -264 -162 -299 -207 -74 -94 -100 -204 -77 -318 17 -83 54 -147 122 -210
80 -75 146 -99 268 -99 84 0 102 3 155 29 81 39 166 126 196 202 21 53 24 73
23 223 0 176 -12 592 -17 597 -2 1 -24 -10 -48 -26z"/>
</g>
</svg>
