<?xml version="1.0" standalone="no"?>
<!DOCTYPE svg PUBLIC "-//W3C//DTD SVG 20010904//EN"
 "http://www.w3.org/TR/2001/REC-SVG-20010904/DTD/svg10.dtd">
<svg version="1.0" xmlns="http://www.w3.org/2000/svg"
 width="512.000000pt" height="512.000000pt" viewBox="0 0 512.000000 512.000000"
 preserveAspectRatio="xMidYMid meet">
<metadata>
Created by potrace 1.14, written by Peter Selinger 2001-2017
</metadata>
<g transform="translate(0.000000,512.000000) scale(0.100000,-0.100000)"
fill="#000000" stroke="none">
<path d="M2028 5103 c-46 -15 -133 -85 -121 -97 4 -3 1 -6 -5 -6 -7 0 -12 -7
-12 -15 0 -8 -4 -15 -9 -15 -8 0 -16 -27 -27 -90 -8 -49 -9 -140 -1 -140 5 0
6 -4 3 -9 -7 -11 -8 -186 -2 -230 15 -95 97 -197 179 -218 172 -46 318 24 369
177 23 69 19 432 -5 477 -10 18 -17 36 -17 40 1 24 -62 86 -109 110 -67 33
-170 40 -243 16z"/>
<path d="M650 4541 c-8 -5 -17 -8 -21 -5 -4 2 -10 0 -14 -6 -3 -5 -13 -10 -22
-10 -21 0 -115 -96 -138 -141 -10 -19 -20 -65 -23 -102 -4 -62 -2 -74 27 -132
19 -38 52 -82 82 -109 27 -24 49 -49 49 -55 0 -6 4 -11 8 -11 5 0 40 -31 78
-69 97 -96 148 -123 237 -127 88 -3 141 19 205 85 62 63 85 114 85 186 1 69 0
73 -32 138 -32 66 -271 305 -337 337 -53 25 -159 38 -184 21z"/>
<path d="M3450 4528 c-25 -10 -46 -23 -48 -29 -2 -5 -8 -9 -14 -9 -13 0 -234
-221 -272 -272 -91 -122 -69 -276 52 -377 58 -50 62 -52 62 -45 0 3 7 0 16 -7
9 -8 45 -14 85 -16 108 -3 162 29 320 188 149 150 181 201 185 296 2 47 -3 73
-21 111 -27 59 -96 131 -151 158 -55 26 -156 28 -214 2z"/>
<path d="M2054 4121 c-2 -3 -23 -6 -47 -7 -43 -3 -86 -9 -122 -17 -52 -12
-111 -30 -120 -35 -5 -4 -14 -7 -20 -8 -5 -1 -37 -14 -70 -30 -33 -15 -63 -27
-67 -26 -5 1 -8 -3 -8 -9 0 -5 -4 -8 -9 -5 -4 3 -16 -3 -26 -14 -10 -11 -22
-20 -28 -20 -20 0 -143 -97 -215 -170 -86 -86 -220 -279 -205 -294 4 -3 1 -6
-5 -6 -7 0 -12 -8 -12 -19 0 -10 -6 -24 -14 -31 -8 -6 -12 -18 -9 -26 3 -8 0
-14 -6 -14 -6 0 -10 -3 -9 -7 2 -10 -13 -64 -20 -78 -4 -5 -7 -16 -8 -25 -6
-42 -35 -173 -41 -183 -3 -6 -1 -7 5 -3 9 5 9 0 2 -18 -7 -19 -6 -26 3 -26 8
0 8 -3 2 -8 -11 -8 -12 -132 -1 -150 3 -6 2 -13 -3 -17 -5 -3 -10 -13 -10 -23
0 -9 -4 -33 -9 -53 -14 -54 -5 -240 14 -270 12 -20 16 -71 5 -65 -18 12 -82
19 -171 19 -98 1 -140 -3 -157 -16 -7 -5 -13 -7 -13 -3 0 18 -214 -82 -237
-112 -7 -9 -13 -12 -13 -6 0 5 -33 -25 -73 -67 -66 -69 -142 -186 -149 -227
-2 -10 -6 -19 -9 -22 -4 -3 -10 -21 -13 -40 -3 -19 -10 -51 -15 -71 -10 -45
-3 -254 9 -254 1 0 3 -8 6 -17 2 -10 6 -26 8 -35 3 -10 5 -20 6 -23 1 -3 2 -8
1 -13 0 -4 4 -7 11 -7 6 0 8 -3 5 -6 -3 -4 -1 -16 5 -28 7 -11 13 -23 13 -26
4 -17 29 -60 36 -60 4 0 10 -9 14 -19 8 -26 114 -132 168 -170 53 -36 171 -91
196 -91 10 0 21 -3 25 -7 3 -4 14 -8 24 -10 9 -2 31 -6 47 -9 43 -8 3313 -11
3353 -3 19 4 32 3 32 -3 0 -7 4 -7 13 0 7 6 35 13 62 16 28 2 59 7 70 10 11 3
47 13 80 21 82 22 232 95 323 158 80 55 242 211 242 232 0 7 7 16 16 19 8 3
13 10 10 15 -3 5 0 11 7 14 24 9 127 230 153 332 23 86 27 121 27 250 1 88 -4
175 -12 210 -13 63 -49 183 -60 200 -3 6 -6 12 -6 15 -1 13 -51 109 -77 147
-15 23 -28 45 -28 48 0 4 -12 20 -27 36 -16 16 -44 48 -63 72 -19 24 -61 65
-94 92 -32 28 -64 56 -71 63 -8 6 -16 12 -19 12 -3 0 -24 13 -48 29 -34 23
-142 79 -168 87 -3 1 -15 5 -27 9 -12 4 -25 6 -29 5 -4 -1 -10 3 -14 9 -3 7
-21 13 -38 14 -18 1 -32 6 -32 10 0 5 -4 5 -10 2 -5 -3 -10 -2 -10 2 0 5 -12
8 -27 7 -16 -1 -32 2 -38 5 -30 20 -363 22 -400 2 -5 -3 -16 -6 -25 -7 -29 -3
-83 -15 -91 -19 -9 -6 -29 18 -33 42 -7 32 -67 135 -116 197 -30 39 -150 160
-150 153 0 -5 -6 -2 -14 5 -7 7 -24 20 -36 28 -12 8 -32 23 -44 32 -30 22
-149 76 -178 80 -13 2 -27 6 -33 9 -17 11 -108 29 -162 33 -39 3 -59 11 -80
30 -89 84 -371 226 -449 226 -11 0 -24 3 -28 7 -3 4 -28 8 -54 10 -26 2 -59 8
-73 12 -14 5 -32 5 -40 1 -7 -5 -17 -6 -23 -3 -11 7 -125 10 -132 4z"/>
<path d="M376 3273 c-1 -1 -37 -3 -81 -4 -59 -1 -94 -8 -134 -26 -57 -25 -136
-97 -126 -113 4 -6 3 -10 -2 -10 -17 0 -32 -78 -29 -150 5 -120 49 -188 156
-238 53 -24 64 -25 253 -27 115 -1 197 2 197 7 0 5 5 6 10 3 26 -16 129 39
174 92 47 56 70 166 52 249 -14 64 -86 171 -107 158 -5 -3 -9 -1 -9 4 0 10
-56 37 -63 31 -2 -2 -10 1 -18 7 -8 6 -54 12 -104 13 -49 2 -107 4 -128 5 -21
0 -40 0 -41 -1z"/>
<path d="M665 976 c-11 -7 -36 -23 -56 -34 -62 -35 -83 -47 -93 -55 -23 -17
-228 -137 -235 -137 -4 0 -14 -8 -23 -17 -9 -10 -23 -23 -30 -29 -22 -19 -48
-54 -48 -64 0 -6 -5 -10 -10 -10 -6 0 -9 -3 -8 -7 1 -5 -3 -25 -9 -45 -15 -51
-8 -139 16 -190 17 -38 91 -130 91 -114 0 3 9 -2 20 -12 12 -9 23 -16 25 -15
3 1 16 -4 31 -11 14 -8 46 -13 70 -12 24 0 44 -3 44 -7 0 -4 8 -4 18 1 9 5 23
7 30 5 6 -3 12 -1 12 5 0 5 6 9 13 9 32 1 63 21 117 75 28 28 57 81 67 121 7
29 9 187 3 187 -3 0 -5 53 -5 118 0 64 -2 134 -6 155 -3 20 -3 39 1 42 9 5 1
55 -9 55 -4 0 -15 -6 -26 -14z"/>
<path d="M4215 889 c-215 -127 -306 -189 -299 -200 3 -5 -1 -9 -8 -9 -27 0
-61 -90 -63 -166 -4 -103 33 -175 127 -249 17 -14 67 -34 98 -39 14 -3 27 -5
30 -6 3 -2 10 -1 15 0 6 1 26 3 45 4 19 0 41 5 48 9 6 5 12 6 12 2 0 -3 10 0
23 7 12 7 26 11 30 10 4 -1 10 5 13 13 4 8 10 15 15 15 19 0 70 67 90 120 15
39 20 75 19 125 -1 39 -2 130 -3 202 -1 73 -5 133 -8 133 -8 0 -5 32 4 47 4 6
3 14 -2 17 -5 3 -7 19 -6 36 1 16 0 30 -4 30 -3 0 -82 -46 -176 -101z"/>
<path d="M2607 869 c-43 -27 -80 -49 -82 -49 -8 0 -171 -100 -187 -114 -10 -9
-21 -16 -25 -16 -20 1 -112 -77 -135 -114 -90 -143 -32 -332 124 -406 102 -49
245 -26 314 50 54 60 59 67 63 81 23 81 28 114 25 179 -1 41 -5 156 -8 254 -4
99 -7 180 -9 182 -1 1 -37 -20 -80 -47z"/>
<path d="M1670 761 c-29 -12 -165 -95 -172 -106 -5 -6 -8 -6 -8 0 0 6 -3 5 -8
-1 -4 -6 -19 -17 -34 -25 -73 -38 -192 -113 -222 -140 -78 -68 -108 -190 -72
-296 18 -54 88 -143 112 -143 8 0 14 -4 14 -8 0 -16 101 -40 158 -38 103 4
199 68 243 163 18 38 22 66 22 133 0 114 -11 461 -15 465 -2 1 -10 0 -18 -4z"/>
<path d="M3485 744 c-22 -13 -50 -30 -62 -36 -13 -6 -23 -15 -23 -20 0 -5 -4
-7 -9 -4 -5 3 -14 -1 -21 -9 -7 -8 -19 -15 -26 -15 -8 0 -14 -4 -14 -10 0 -5
-11 -12 -25 -16 -14 -3 -25 -10 -25 -15 0 -5 -3 -8 -7 -7 -5 1 -34 -15 -65
-35 -31 -20 -61 -37 -67 -37 -14 0 -116 -102 -128 -130 -91 -197 59 -415 278
-406 118 5 228 95 255 207 7 27 7 168 0 364 -3 72 -5 145 -5 163 -1 38 -4 38
-56 6z"/>
</g>
</svg>
